<?xml version="1.0" encoding="UTF-8"?>
<svg width="16px" height="16px" viewBox="0 0 16 16" version="1.1" xmlns="http://www.w3.org/2000/svg" xmlns:xlink="http://www.w3.org/1999/xlink">
    <title>用户</title>
    <g id="用户" stroke="none" stroke-width="1" fill="none" fill-rule="evenodd">
        <path d="M7.97947114,2.25 C9.91246776,2.25 11.4794711,3.81700338 11.4794711,5.75 C11.4794711,6.92285876 10.902573,7.96097573 10.017058,8.59606953 C12.1995234,9.36816256 13.8022354,11.3606326 14,13.7500973 L12.9924236,13.7503002 C12.7408397,11.2234949 10.6016783,9.25 8,9.25 C5.3983217,9.25 3.25916033,11.2234949 3.00757637,13.7503002 L2,13.7500973 C2.19694572,11.3705261 3.78722873,9.38466889 5.95593403,8.60465259 C5.06250975,7.97199225 4.47947114,6.92908411 4.47947114,5.75 C4.47947114,3.81700338 6.04647452,2.25 7.97947114,2.25 Z M7.97947114,3.25 C6.59875927,3.25 5.47947114,4.36928813 5.47947114,5.75 C5.47947114,7.13071187 6.59875927,8.25 7.97947114,8.25 C9.36018301,8.25 10.4794711,7.13071187 10.4794711,5.75 C10.4794711,4.36928813 9.36018301,3.25 7.97947114,3.25 Z" id="形状结合" fill="#000000" fill-rule="nonzero"></path>
    </g>
</svg>