<?xml version="1.0" encoding="UTF-8"?>
<svg width="16px" height="16px" viewBox="0 0 16 16" version="1.1" xmlns="http://www.w3.org/2000/svg" xmlns:xlink="http://www.w3.org/1999/xlink">
    <title>搜索</title>
    <g id="920" stroke="none" stroke-width="1" fill="none" fill-rule="evenodd">
        <g id="搜索" fill="#000000" fill-rule="nonzero">
            <rect id="矩形" opacity="0" x="0" y="0" width="16" height="16"></rect>
            <path d="M9.76,10.469 C7.7900707,12.0623882 4.91759026,11.8351029 3.22275921,9.9517402 C1.52792817,8.06837746 1.60375996,5.18791708 3.39533852,3.39633852 C5.18691708,1.60475996 8.06737746,1.52892817 9.9507402,3.22375921 C11.8341029,4.91859026 12.0613882,7.7910707 10.468,9.761 L14,13.29 L13.292,13.999 L9.76,10.468 L9.76,10.469 Z M10.527,6.764 C10.5491535,5.40516875 9.83690961,4.13996849 8.66368061,3.45407721 C7.49045162,2.76818592 6.03854838,2.76818592 4.86531939,3.45407721 C3.69209039,4.13996849 2.97984653,5.40516875 3.002,6.764 C3.03548798,8.81805848 4.71016856,10.4656587 6.7645,10.4656587 C8.81883144,10.4656587 10.493512,8.81805848 10.527,6.764 L10.527,6.764 Z" id="形状"></path>
        </g>
    </g>
</svg>