<?xml version="1.0" encoding="UTF-8"?>
<svg width="104px" height="104px" viewBox="0 0 104 104" version="1.1" xmlns="http://www.w3.org/2000/svg" xmlns:xlink="http://www.w3.org/1999/xlink">
    <title>rdxw</title>
    <defs>
        <linearGradient x1="50%" y1="1.78676518e-14%" x2="50%" y2="100%" id="linearGradient-1">
            <stop stop-color="#FEF1C3" offset="0%"></stop>
            <stop stop-color="#FFEECD" offset="100%"></stop>
        </linearGradient>
        <linearGradient x1="100%" y1="-13.5589375%" x2="50%" y2="41.1595771%" id="linearGradient-2">
            <stop stop-color="#F8D630" offset="0%"></stop>
            <stop stop-color="#FB9A03" offset="100%"></stop>
        </linearGradient>
    </defs>
    <g id="页面-1" stroke="none" stroke-width="1" fill="none" fill-rule="evenodd">
        <g id="效果图" transform="translate(-52.000000, -1268.000000)">
            <g id="热点新闻" transform="translate(32.000000, 1248.000000)">
                <g id="rdxw" transform="translate(20.000000, 20.000000)">
                    <rect id="矩形" fill="url(#linearGradient-1)" x="0" y="0" width="104" height="104" rx="8"></rect>
                    <path d="M51.1006156,39 L50.2221167,32.9090909 L53.7405063,18.0909091 L44.7222421,18.0909091 L46.297844,15 L40.9670477,15 L39.3914459,18.0909091 L34.0606496,18.0909091 L32.9921816,22.5909091 L37.1205426,22.5909091 L35.7515251,25.3181818 L32.064057,25.3181818 L33.647125,29.4545455 L28.8987342,38.8181818 L34.1894492,38.8181818 L35.8590953,35.5 L36.6082411,37.4090909 L42.099362,37.4090909 L39.0318843,29.2272727 L42.4112576,22.5909091 L47.1007551,22.5909091 L44.6508335,32.9090909 L45.5293323,39 L51.1006156,39 Z M20.0991598,39 C20.6913117,39 21.28735,38.870229 21.8872748,38.610687 C22.4871996,38.351145 23.0433892,37.9923664 23.5558437,37.5343511 C24.0682981,37.0763359 24.5181236,36.5419847 24.9053203,35.9312977 C25.292517,35.3206107 25.5694631,34.6641221 25.7361587,33.9618321 L26.9972472,28.648855 L29.7489819,25.9007634 L27.6495344,25.9007634 L28.4214075,22.648855 L30.803473,22.648855 L31.8797468,18.1145038 L29.4976813,18.1145038 L30.2369401,15 L24.6249553,15 L23.8856965,18.1145038 L20.3327852,18.1145038 L19.2565114,22.648855 L22.8094227,22.648855 L21.4831054,28.2366412 L16.8461607,32.6335878 L20.439446,32.6335878 L20.2111455,33.5954198 C20.1169262,33.9923664 19.9160803,34.3282443 19.6086076,34.6030534 C19.3011349,34.8778626 18.9589866,35.0152672 18.5821627,35.0152672 L18.4610407,35.0152672 L15.9810127,39 L20.0991598,39 Z M19.1769349,48 L22.9367089,41 L16.7597739,41 L13,48 L19.1769349,48 Z M31.8797468,48 L31.4451475,41 L24.9240506,41 L25.35865,48 L31.8797468,48 Z M40.8227848,48 L40.3881855,41 L33.8670886,41 L34.3016879,48 L40.8227848,48 Z M48.7721519,48 L48.3375526,41 L41.8164557,41 L42.2087103,48 L48.7721519,48 Z M83.6321208,40 C84.1428435,40 84.6605486,39.8879928 85.185236,39.6639785 C85.7099233,39.4399642 86.1940348,39.1338112 86.6375705,38.7455197 C87.0811061,38.3572282 87.4651973,37.9091995 87.7898441,37.4014337 C88.1144908,36.8936679 88.3455751,36.3560335 88.4830967,35.7885305 L91.3276235,24.0501792 L70.8046336,24.0501792 L71.4343381,21.4516129 L90.4251597,21.4516129 L91.5,17.016129 L72.5091783,17.016129 L72.9977421,15 L66.7481086,15 L64.5550002,24.0501792 L56.6119177,24.0501792 L52.7468354,40 L83.6321208,40 Z M59.7025316,36 L61.4643784,29 L85.5379747,29 L83.9423399,35.3396226 C83.8980167,35.5157233 83.7975068,35.6698113 83.64081,35.8018868 C83.4841133,35.9339623 83.3097449,36 83.1177048,36 L59.7025316,36 Z M57.15695,48 L60.6962025,42 L54.3402881,42 L50.7594937,48 L57.15695,48 Z M68.6455696,48 L67.9205737,42 L61.6898734,42 L62.4148693,48 L68.6455696,48 Z M77.5886076,48 L76.9003054,42 L70.6329114,42 L71.3212136,48 L77.5886076,48 Z M86.5316456,48 L85.8433434,42 L79.5759494,42 L80.2642515,48 L86.5316456,48 Z M62.3327413,59.8234483 L55.3157351,89 L49.6647684,89 L56.6817747,59.8234483 L62.3327413,59.8234483 Z M92.5,56.7737931 L85.9537134,83.9931034 C85.7858598,84.6910345 85.5137657,85.3434483 85.137431,85.9503448 C84.7610963,86.5572414 84.314922,87.0882759 83.7989079,87.5434483 C83.2828939,87.9986207 82.7228409,88.3551724 82.1187489,88.6131034 C81.5146569,88.8710345 80.9009269,89 80.2775589,89 L74.9924822,89 L77.47879,85.0855172 L78.779732,85.0855172 C79.1320704,85.0855172 79.4698196,84.9489655 79.7929795,84.6758621 C80.1161394,84.4027586 80.3288052,84.0537931 80.4309769,83.6289655 L85.816885,61.2344828 L72.2383033,61.2344828 L73.3111061,56.7737931 L92.5,56.7737931 Z M55.5764117,56.1365517 L54.6459195,60.0055172 L44.247744,60.6427586 L43.1749412,65.1034483 L53.4198591,65.1034483 L52.4893668,68.9724138 L51.107116,68.9724138 L46.3232911,88.8634483 L40.8349423,88.8634483 L45.6187671,68.9724138 L42.2444489,68.9724138 L38.3801693,85.04 L36.3926617,88.9089655 L30.9043128,88.9089655 L32.8918204,85.04 L39.6023116,57.137931 L55.5764117,56.1365517 Z M24.1315314,63.1462069 L24.6645988,67.0151724 L27.9982626,67.0151724 L30.3516601,63.1462069 L35.5960824,63.1462069 L33.2020304,67.0151724 L35.3160611,67.0151724 L34.2323113,71.5213793 L28.0121826,71.5213793 L27.3444176,74.297931 L33.5645463,74.297931 L32.4807965,78.8041379 L26.2606678,78.8041379 L24.8594559,84.6303448 C24.7207943,85.2068966 24.4877946,85.7531034 24.1604568,86.2689655 C23.833119,86.7848276 23.4526197,87.24 23.018959,87.6344828 C22.5852984,88.0289655 22.1039497,88.34 21.5749131,88.5675862 C21.0458765,88.7951724 20.5238801,88.9089655 20.0089239,88.9089655 L16.4313335,88.9089655 L18.2436897,85.7682759 L18.4063074,85.7682759 C18.8399547,85.7682759 19.1151622,85.5255172 19.2319299,85.04 L20.7316644,78.8041379 L14.4708813,78.8041379 L15.554631,74.297931 L21.8154142,74.297931 L22.4831793,71.5213793 L16.2223961,71.5213793 L17.3061459,67.0151724 L19.4201766,67.0151724 L18.8871091,63.1462069 L24.1315314,63.1462069 Z M31.2110686,80.5337931 L30.0505697,88.9089655 L25.7818539,88.9089655 L26.9423528,80.5337931 L31.2110686,80.5337931 Z M19.1773554,80.5337931 L16.3093702,88.9089655 L12,88.9089655 L14.8679852,80.5337931 L19.1773554,80.5337931 Z M82.057796,64.6937931 L81.2696144,67.9710345 L79.7654002,67.9710345 L76.9082417,79.8510345 L78.4343497,79.76 L77.6461681,83.0372414 L76.12006,83.1282759 L75.3099844,86.4965517 L70.0249077,86.4965517 L70.7693015,83.4013793 L58.0944776,84.0386207 L58.8826592,80.7613793 L60.1538937,80.7158621 L63.2190447,67.9710345 L61.9587571,67.9710345 L62.7469388,64.6937931 L82.057796,64.6937931 Z M71.9844149,78.3489655 L66.0082128,78.3489655 L65.5046522,80.4427586 L71.5574831,80.1241379 L71.9844149,78.3489655 Z M73.2323692,73.16 L67.2561671,73.16 L66.7963944,75.0717241 L72.7725966,75.0717241 L73.2323692,73.16 Z M74.4803235,67.9710345 L68.5041214,67.9710345 L68.0443487,69.8827586 L74.0205509,69.8827586 L74.4803235,67.9710345 Z M69.9602686,56 L70.9451347,62.5544828 L64.3184616,62.5544828 L63.2929411,56 L69.9602686,56 Z M31.3695944,56 L31.5674823,57.3953488 L37.8395062,57.3953488 L36.7677298,62 L18.9567901,62 L20.0285665,57.3953488 L25.0140214,57.3953488 L24.8161335,56 L31.3695944,56 Z" id="形状结合" fill="url(#linearGradient-2)" fill-rule="nonzero"></path>
                </g>
            </g>
        </g>
    </g>
</svg>